<svg xmlns="http://www.w3.org/2000/svg"  viewBox="0 0 100 100" width="100px" height="100px"><path d="M31.999,92.993c-6.223,0-11.497-1.985-15.251-5.74c-3.361-3.359-5.266-7.779-5.664-13.139	c-0.055-0.341-0.083-0.686-0.083-1.031V52c0-1.129,0.296-2.243,0.856-3.224l7.667-13.417c0.282-0.497,0.64-0.966,1.056-1.38	l13.408-13.407c0.487-0.489,1.055-0.9,1.683-1.215l15.338-7.67c0.907-0.455,1.889-0.687,2.914-0.687l20.9,0.188	c0.303,0.005,0.576,0.025,0.844,0.063c4.664,0.631,8.571,2.481,11.585,5.495c3.993,3.992,5.971,9.647,5.719,16.354l-0.138,2.121	l-3.688,47.943c-0.248,3.218-2.763,5.734-5.983,5.981c0,0-48.717,3.747-48.911,3.762l-1.168,0.065	C32.718,92.986,32.356,92.993,31.999,92.993z" opacity=".35"/><path fill="#f2f2f2" d="M29.999,90.993c-6.223,0-11.497-1.985-15.251-5.74c-3.361-3.359-5.266-7.779-5.664-13.139	c-0.055-0.341-0.083-0.686-0.083-1.031V50c0-1.129,0.296-2.243,0.856-3.224l7.667-13.417c0.282-0.497,0.64-0.966,1.056-1.38	l13.408-13.407c0.487-0.489,1.055-0.9,1.683-1.215l15.338-7.67c0.907-0.455,1.889-0.687,2.914-0.687l20.9,0.188	c0.303,0.005,0.576,0.025,0.844,0.063c4.664,0.631,8.571,2.481,11.585,5.495c3.993,3.992,5.971,9.647,5.719,16.354l-0.138,2.121	l-3.688,47.943c-0.248,3.218-2.763,5.734-5.983,5.981c0,0-48.717,3.747-48.911,3.762l-1.168,0.065	C30.718,90.986,30.356,90.993,29.999,90.993z"/><path fill="#de5147" d="M84.499,30.834l-3.833,49.832l-49.832,3.833L84.499,30.834z"/><path fill="#dd4f2c" d="M57.666,57.666l22.999,22.999l3.833-49.832L57.666,57.666z"/><path fill="#f4665c" d="M34.192,34.193C17.261,51.124,10.613,71.927,19.344,80.657s29.533,2.081,46.464-14.85	s23.579-37.735,14.849-46.465S51.123,17.261,34.192,34.193L34.192,34.193z"/><path fill="#f4665c" d="M23.168,36.584l13.416-13.416l15.333-7.666l11.5,7.666l-5.75,17.249L40.417,55.75L23.168,61.5	L15.501,50L23.168,36.584z"/><path fill="#de5147" d="M63.416,23.168l-11.5-7.666h21.083L63.416,23.168z M84.499,32.751l-21.083-9.583l-5.75,17.249	L84.499,32.751z M40.417,55.75l25.366,10.033l-8.117-25.366L40.417,55.75z M23.168,61.5l7.666,22.999l9.583-28.749L23.168,61.5z M15.501,50v21.083l7.666-9.583L15.501,50z"/><path fill="none" stroke="#40396e" stroke-linecap="round" stroke-linejoin="round" stroke-miterlimit="10" stroke-width="3" d="M84.476,30.857c0.177-4.719-1.037-8.732-3.82-11.514c-2.038-2.038-4.74-3.228-7.891-3.654l-20.849-0.187l-15.333,7.666	L23.168,36.584L15.501,50v21.083l0.03-0.037c0.181,3.895,1.412,7.211,3.813,9.612c2.777,2.777,6.777,3.992,11.484,3.821l0.932-0.051	c0.125-0.009,48.906-3.762,48.906-3.762l3.682-47.872L84.476,30.857z"/></svg>